<svg width="45" height="45" viewBox="0 0 45 45" fill="none" xmlns="http://www.w3.org/2000/svg">
<path d="M22.5 0C10.0736 0 0 10.0736 0 22.5C0 34.9264 10.0736 45 22.5 45C34.9264 45 45 34.9264 45 22.5C45 10.0736 34.9264 0 22.5 0ZM31.0838 11.4583L27.9718 11.4597C25.5315 11.4597 25.0596 12.6193 25.0596 14.3208V18.0727H30.879L30.8762 23.9492H25.0601V39.0296H18.9902V23.9492H13.9162V18.0727H18.9902V13.7389C18.9902 8.70951 22.0631 5.97038 26.5493 5.97038L31.0843 5.97729V11.4583H31.0838Z" fill="#545454"/>
</svg>
