<svg width="51" height="72" viewBox="0 0 51 72" fill="none" xmlns="http://www.w3.org/2000/svg">
<path d="M50.8517 34.794C50.5558 31.6636 49.6187 28.8411 48.0403 26.3778C46.3633 23.7092 44.4891 22.1183 42.6148 21.1433C39.5568 19.6037 36.4001 19.7577 33.638 19.809C21.1593 20.0656 17.9533 12.4704 16.3256 7.95439C19.8769 14.1126 24.6612 17.3457 29.5935 16.268C25.4997 -4.10548 7.00356 0.41056 7.00356 0.41056C8.53258 15.6009 13.5635 22.6828 25.4504 24.2224C27.9165 24.5303 30.7279 24.6329 33.8353 24.479C37.9784 24.2737 41.2337 24.1198 44.3411 28.995C46.7086 32.69 47.2018 37.9245 45.6235 43.6208C45.5248 43.9287 45.4262 44.288 45.3275 44.5959C42.5161 53.7306 35.167 62.1982 25.7463 67.1247C12.6264 60.3507 5.67184 49.5738 4.53741 41.722C4.14283 38.7969 4.2908 34.6401 7.44747 31.7149C13.0703 26.4804 18.2985 31.2017 23.1815 36.4362C23.5268 36.8468 23.872 37.1547 24.168 37.4626C24.5132 37.8218 24.9571 38.0271 25.401 38.0784V38.1297C25.845 38.0784 26.2889 37.8218 26.6341 37.5139C26.9301 37.206 27.2753 36.8468 27.6206 36.4875C31.4185 32.4334 35.3643 28.7384 39.5568 29.6108C36.696 26.3265 30.8266 26.9936 25.401 32.2281V32.1768C21.2579 27.7634 13.0703 20.3222 4.53741 28.2252C0.93683 31.6123 -0.592183 36.6415 0.196985 42.3892C1.77532 53.5253 11.6892 65.3286 24.8585 71.7947C25.1544 71.9487 25.4997 72 25.7956 72C26.1409 72 26.4368 71.9487 26.7328 71.7947C38.225 66.1497 46.9059 56.0912 49.9146 44.8525C49.9146 44.7498 49.9639 44.6985 49.9639 44.5959C50.4078 42.9537 50.7038 41.3115 50.8517 39.7719C51.049 38.0271 51.049 36.3849 50.8517 34.794Z" fill="url(#paint0_linear)"/>
<defs>
<linearGradient id="paint0_linear" x1="29.2291" y1="-0.015503" x2="28.138" y2="71.984" gradientUnits="userSpaceOnUse">
<stop stop-color="#98D67D"/>
<stop offset="1" stop-color="#569F36"/>
</linearGradient>
</defs>
</svg>
