<svg width="45" height="45" viewBox="0 0 45 45" fill="none" xmlns="http://www.w3.org/2000/svg">
<path d="M22.5 0C10.0755 0 0 10.0755 0 22.5C0 34.9245 10.0755 45 22.5 45C34.9245 45 45 34.9245 45 22.5C45 10.0755 34.9245 0 22.5 0ZM32.7732 17.5431C32.7832 17.7645 32.788 17.987 32.788 18.2105C32.788 25.0348 27.5935 32.9041 18.0941 32.9044H18.0945H18.0941C15.1776 32.9044 12.4636 32.0495 10.1781 30.5846C10.5822 30.6323 10.9935 30.656 11.41 30.656C13.8297 30.656 16.0565 29.8306 17.8243 28.4453C15.5635 28.4034 13.6574 26.9103 12.9996 24.8583C13.3144 24.9187 13.6382 24.9517 13.9701 24.9517C14.4415 24.9517 14.8981 24.8882 15.3321 24.7697C12.969 24.2966 11.1889 22.2082 11.1889 19.7074C11.1889 19.6841 11.1889 19.6631 11.1896 19.6415C11.8855 20.0284 12.6813 20.2612 13.5286 20.2873C12.142 19.362 11.2304 17.7803 11.2304 15.9885C11.2304 15.0423 11.4862 14.1559 11.9298 13.3927C14.4765 16.5176 18.2826 18.5727 22.5748 18.7887C22.4863 18.4103 22.4406 18.0162 22.4406 17.6111C22.4406 14.7601 24.7536 12.4472 27.6056 12.4472C29.0911 12.4472 30.4328 13.0751 31.3752 14.079C32.5518 13.8469 33.6566 13.4171 34.6547 12.8255C34.2684 14.0309 33.4499 15.0423 32.3836 15.682C33.4283 15.557 34.4239 15.2799 35.3492 14.8686C34.6581 15.9044 33.7816 16.8142 32.7732 17.5431Z" fill="#545454"/>
</svg>
